<svg version="1" xmlns="http://www.w3.org/2000/svg" width="933.333" height="933.333" viewBox="0 0 700.000000 700.000000"><path d="M329.8.5c-.1.1-4.1.5-8.8.9-7.9.6-26.8 2.9-31.6 4-1.2.2-3.8.7-5.9 1-2 .4-4 .8-4.4 1-.3.2-2.4.7-4.6 1-9.6 1.5-42.5 11.5-53.2 16.2-1.8.8-4.8 2.1-6.7 2.9-1.9.8-3.7 1.5-4 1.5-1.4 0-30.5 14.9-38.1 19.5-7.8 4.7-21 13.2-23 14.7-.5.5-5.9 4.5-12 9-6 4.6-11.2 8.5-11.5 8.9-.3.3-3.6 3.3-7.5 6.6-14.3 12.3-35.3 34.9-47.6 51.3-23.5 31.3-40.8 64.4-53 101.1-2.6 8.1-5.1 15.8-5.3 17-.3 1.3-1.3 5.1-2.1 8.4-.9 3.3-1.8 7.1-2.1 8.5-.2 1.4-.9 4.5-1.4 7-1.2 5.9-2.9 15.4-3.5 21-.4 2.5-.8 6.1-1.1 8-2.8 19.2-2.5 63.3.5 84.5 2 14.1 2.3 15.6 6.6 36.5.2.8.9 3.5 1.6 6 .7 2.5 1.3 5.1 1.5 5.8.9 4.8 8.5 27 13.1 38.2 15.8 39.1 38.2 74.6 66.8 105.9 9 9.9 27.1 26.9 36.8 34.6 2.1 1.6 4.4 3.4 5 4 2.4 2 16.3 12.1 20.2 14.6 7.8 5.2 18.1 11.6 22.5 14.1 6 3.4 30.5 15.8 31.3 15.8.4 0 3 1.1 5.9 2.4 9.5 4.3 24 9.4 38.4 13.6 16.5 4.8 36.7 9.1 49.9 10.5 2.8.3 5.6.8 6.4 1.1 7.4 2.5 64 2.5 82.1-.1 1.4-.2 4.8-.6 7.5-1 4.3-.6 18.4-3.1 28-5 6.2-1.2 22.4-5.8 33.8-9.6 77.8-25.8 143.3-77.5 187.4-148 10.5-16.7 23.3-43 30.6-62.9 6.5-17.4 14-45.3 16.1-59.6.4-2.2.9-5.1 1.1-6.4.3-1.4 1.3-8.4 2.2-15.5 2.4-18.8 2.3-69.2-.2-81-.2-1.1-.7-4.1-1-6.7-4.7-39.8-21-87.2-43.5-126.8-4.7-8.4-20-31.5-22.7-34.5-1-1.1-3.7-4.5-6-7.6-2.3-3.1-4.7-6.2-5.5-7-.7-.8-3.8-4.3-6.8-7.8-18-20.9-46.6-45.5-71.5-61.6-45-29-97.6-48-149.5-54-3-.4-6.8-.8-8.5-1.1C379 .9 330.3 0 329.8.5zm-13.8 103c1 2.7 3.9 11.5 6.5 19.5 2.5 8 10 30.9 16.5 51s13.6 41.8 15.6 48.2c2.1 6.5 4.1 11.5 4.5 11 .6-.7 2.9-7.6 22.4-67.7 5.4-16.5 12.5-38.3 15.9-48.5l6.1-18.5h88.8L498 127c3.2 15.7 7 34.3 8.5 41.5 1.5 7.1 2.9 14.1 3.1 15.5.4 2.1 1.6 7.9 6 29.5.2 1.1 1.2 6.3 2.3 11.5 1 5.2 2.9 14.2 4.1 20 1.2 5.8 2.4 11.6 2.6 13 .3 1.4 2.7 13.5 5.5 27 2.7 13.5 7 34.6 9.5 47 2.5 12.4 4.7 23.2 4.9 24 .2.8 2.4 11.6 4.9 24 2.5 12.4 8.4 41.4 13.1 64.5 4.7 23.1 8.7 42.9 8.9 44 .3 1.1 1.4 6.7 2.6 12.5 1.2 5.8 2.4 11.6 2.6 13 .9 4.9 3.5 17.5 4.1 19.8l.5 2.2h-89l-.6-2.8c-.3-1.5-.8-4.2-1.1-6.1-.3-1.9-.7-3.7-.9-4-.2-.3-.7-2.4-1-4.6-.4-2.2-.8-4.7-1.1-5.5-.2-.8-.6-2.6-.9-4-.2-1.4-2-10.6-4.1-20.5-2-9.9-3.9-19.1-4.1-20.5-.3-1.4-1.8-8.8-3.4-16.5-1.6-7.7-3.1-15.1-3.3-16.5-.3-1.4-1.9-9.3-3.6-17.5-1.6-8.3-3.2-16.1-3.5-17.5-.2-1.4-1.2-5.8-2-9.7-.9-4-1.8-8.7-2.1-10.5-.3-1.8-1.2-6-2-9.3-.7-3.3-1.6-7.7-1.9-9.9-.4-2.1-.8-4.1-1-4.5-.2-.3-.7-2.2-1-4.1-.6-3.9-2.3-12.8-4.1-21-.7-3.1-1.4-6.7-2-10.2-.3-1.4-2.1-10.2-4-19.5-1.9-9.2-3.6-17.9-3.9-19.3-1.7-8.8-2.7-13.4-3-13.8-.2-.2-5.2 14.4-11.1 32.5-5.9 18-13.5 41.3-16.9 51.8l-6.2 19H359c-38.3 0-44.4-.2-45.1-1.5-.4-.8-2.4-6.7-4.4-13-2-6.3-8.8-27.5-15.1-47-6.4-19.5-12-37-12.6-38.8-.5-1.8-1.2-3.1-1.4-2.9-.5.5-.3-.6-4.4 19.7-1.8 8.5-3.3 15.9-3.4 16.5-1.2 5.1-1.6 7.4-2 9.5-.2 1.4-2.1 10.6-4.1 20.5-2.1 9.9-3.9 18.9-4 20-.2 1.1-1.5 7.6-3 14.5-1.4 6.9-3 14.7-3.6 17.5-.5 2.7-1.1 5.9-1.3 7-.7 2.9-4.7 22.6-5.2 25-.2 1.1-.6 3.1-.9 4.5-.2 1.4-2 10.1-3.9 19.5-1.9 9.3-3.7 18.1-4 19.5-.2 1.4-3.4 17.1-7.1 35-3.6 17.9-6.9 34-7.2 35.7l-.6 3.3h-44.3c-25.3 0-44.4-.4-44.4-.9s.9-5.3 2.1-10.7c1.1-5.5 2.2-10.8 2.5-11.9.2-1.1.8-4.3 1.4-7 .5-2.8 3.3-16.3 6.1-30 2.8-13.8 5.3-26 5.5-27.3.2-1.2.6-3.2.8-4.5.2-1.2.7-3.3 1-4.7.3-1.4.8-3.6 1-5 .2-1.4.9-4.5 1.5-7 .5-2.5 1.2-5.9 1.5-7.5.3-1.7.8-3.9 1-5 2-9.8 18.1-88.8 23.2-114.5 3.6-17.9 6.7-33.2 6.9-34 .2-.8 1.1-5.1 2-9.5.9-4.4 1.9-9.1 2.1-10.5.3-1.4 1.2-5.9 2-10 .9-4.1 1.7-8.4 2-9.5.2-1.1.6-3.1.9-4.5.3-1.4.7-3.6 1-5 .3-1.4 2.1-10.2 4-19.5 1.9-9.4 3.7-18.1 3.9-19.5.3-1.4 1.6-8.1 3.1-15 1.4-6.9 2.7-13.4 2.9-14.5 4.3-22.2 10.1-49.1 10.7-49.5.4-.3 20.4-.5 44.5-.5h43.6l1.8 5z"/></svg>